<svg fill="#000000" xmlns="http://www.w3.org/2000/svg"  viewBox="0 0 30 30" width="30px" height="30px"><path d="M24,11l2.414-2.414c0.781-0.781,0.781-2.047,0-2.828l-2.172-2.172c-0.781-0.781-2.047-0.781-2.828,0L19,6L24,11z M17,8	L5.26,19.74c0,0,0.918-0.082,1.26,0.26c0.342,0.342,0.06,2.58,0.48,3s2.644,0.124,2.963,0.443c0.319,0.319,0.297,1.297,0.297,1.297	L22,13L17,8z M4.328,26.944l-0.015-0.007C4.213,26.97,4.111,27,4,27c-0.552,0-1-0.448-1-1c0-0.111,0.03-0.213,0.063-0.313	l-0.007-0.015L4,23l1.5,1.5L7,26L4.328,26.944z"/></svg>